#!OML:ASF X:\für Bonn\!DataBase\2005_08_12_Daniel\c3d\Daniel.ASF
:FULLY-SPECIFIED
:DEGREES
256
root 0.321353 14.9715 -16.7246 377.449 25.5569 14.5743
lowerback 89.6581 -8.79197 11.3196
upperback 5.79555 2.88978 -2.41256
thorax -11.2566 2.01944 -8.13444
lowerneck -3.15555 -10.2935 -1.16344
upperneck 6.46906 -13.9511 6.8086
head 3.27969 -6.67294 1.83423
rclavicle -4.77083e-014 -1.19271e-014
rhumerus 240.363 -164.733 -260.497
rradius 2.44944
rwrist 54.1735
rhand -37.2988 -1.30156
rfingers 7.12502
rthumb -10.3629 -31.0262
lclavicle -4.77083e-014 -1.19271e-014
lhumerus -23.825 -17.8225 96.5746
lradius 55.4437
lwrist 14.0598
lhand -8.0644 -8.76267
lfingers 7.12502
lthumb 17.8469 20.4384
rfemur -60.8976 -13.3136 0.999177
rtibia 83.4883
rfoot -31.6997 -7.16486
rtoes -17.6587
lfemur -65.3538 -6.10591 -32.019
ltibia 72.0141
lfoot -14.3002 -28.0522
ltoes -1.8689
257
root 0.32909 15.0033 -16.7223 377.416 25.5282 14.4188
lowerback 89.4822 -8.76375 11.2915
upperback 5.83619 2.83465 -2.46961
thorax -11.2475 2.00175 -8.18039
lowerneck -3.33337 -10.2608 -1.29651
upperneck 6.54541 -13.9171 6.89768
head 3.35747 -6.65168 1.87483
rclavicle -3.18055e-015 -3.97569e-014
rhumerus 239.824 -164.662 -260.297
rradius 2.63983
rwrist 53.6069
rhand -35.8011 -0.90717
rfingers 7.12502
rthumb -8.91791 -30.6987
lclavicle -3.18055e-015 -3.97569e-014
lhumerus -23.7111 -17.8679 96.5052
lradius 55.2858
lwrist 13.9728
lhand -8.1067 -8.77746
lfingers 7.12502
lthumb 17.8062 20.4273
rfemur -60.6606 -13.2447 1.13679
rtibia 83.0495
rfoot -31.5804 -7.14365
rtoes -17.4702
lfemur -65.1439 -6.19864 -31.8275
ltibia 71.6717
lfoot -14.2406 -27.893
ltoes -1.83965
258
root 0.337409 15.0392 -16.7211 377.33 25.5023 14.2352
lowerback 89.303 -8.74193 11.2646
upperback 5.88599 2.77456 -2.52442
thorax -11.2281 1.98301 -8.22123
lowerneck -3.37779 -10.2276 -1.44472
upperneck 6.5301 -13.8764 7.02216
head 3.38297 -6.63216 1.93911
rclavicle -4.77083e-014 2.94201e-014
rhumerus 239.258 -164.596 -260.082
rradius 2.84655
rwrist 52.8568
rhand -34.1876 -0.300224
rfingers 7.12502
rthumb -7.36065 -30.1522
lclavicle -4.77083e-014 2.94201e-014
lhumerus -23.5817 -17.8901 96.4449
lradius 55.11
lwrist 13.9127
lhand -8.13665 -8.74347
lfingers 7.12502
lthumb 17.7774 20.4639
rfemur -60.3627 -13.1613 1.30236
rtibia 82.573
rfoot -31.4369 -7.16788
rtoes -17.4918
lfemur -64.8696 -6.28899 -31.6152
ltibia 71.3117
lfoot -14.2307 -27.6886
ltoes -2.00614
259
root 0.346383 15.0756 -16.7207 377.194 25.4741 14.0469
lowerback 89.1337 -8.73664 11.2453
upperback 5.93789 2.70642 -2.5876
thorax -11.2039 1.96309 -8.27114
lowerneck -3.41366 -10.1879 -1.5582
upperneck 6.56013 -13.8265 7.09565
head 3.41436 -6.60695 1.98159
rclavicle -1.59028e-014 5.84427e-014
rhumerus 238.621 -164.536 -259.871
rradius 3.09321
rwrist 52.0294
rhand -32.5202 0.408129
rfingers 7.12502
rthumb -5.75098 -29.4938
lclavicle -1.59028e-014 5.84427e-014
lhumerus -23.4763 -17.9573 96.3842
lradius 54.9084
lwrist 13.8908
lhand -8.19472 -8.69204
lfingers 7.12502
lthumb 17.7215 20.5204
rfemur -60.0046 -13.0709 1.46051
rtibia 82.0748
rfoot -31.2891 -7.20019
rtoes -17.4048
lfemur -64.54 -6.39524 -31.3979
ltibia 70.9364
lfoot -14.2082 -27.4746
ltoes -2.22427
260
root 0.356619 15.1139 -16.72 377.052 25.4164 13.8443
lowerback 88.9302 -8.72545 11.2274
upperback 6.0051 2.63348 -2.66625
thorax -11.1673 1.94382 -8.33962
lowerneck -3.28842 -10.1382 -1.70136
upperneck 6.44835 -13.758 7.25402
head 3.37581 -6.57892 2.06908
rclavicle 2.22639e-014 -3.1408e-014
rhumerus 237.902 -164.459 -259.656
rradius 3.41918
rwrist 51.015
rhand -30.7519 1.23249
rfingers 7.12502
rthumb -4.04351 -28.7089
lclavicle 2.22639e-014 -3.1408e-014
lhumerus -23.3507 -18.0374 96.3066
lradius 54.6991
lwrist 13.8536
lhand -8.15684 -8.57161
lfingers 7.12502
lthumb 17.7579 20.6376
rfemur -59.6325 -12.9557 1.62534
rtibia 81.5379
rfoot -31.1204 -7.21673
rtoes -17.3448
lfemur -64.1988 -6.48153 -31.1767
ltibia 70.5445
lfoot -14.1745 -27.2454
ltoes -2.29216
261
root 0.368191 15.1546 -16.7215 376.898 25.3571 13.6186
lowerback 88.6956 -8.73676 11.2312
upperback 6.08503 2.54654 -2.76749
thorax -11.1192 1.92242 -8.43802
lowerneck -3.14839 -10.0905 -1.74242
upperneck 6.34914 -13.6936 7.35855
head 3.32522 -6.55177 2.12275
rclavicle -6.36111e-014 -1.98785e-015
rhumerus 237.172 -164.388 -259.466
rradius 3.73026
rwrist 49.9489
rhand -28.98 2.03078
rfingers 7.12502
rthumb -2.33244 -27.9362
lclavicle -6.36111e-014 -1.98785e-015
lhumerus -23.2433 -18.1341 96.2081
lradius 54.4957
lwrist 13.8206
lhand -8.12534 -8.48493
lfingers 7.12502
lthumb 17.7882 20.7215
rfemur -59.2534 -12.8541 1.81251
rtibia 80.9745
rfoot -30.9476 -7.22094
rtoes -17.3246
lfemur -63.8445 -6.60285 -30.9216
ltibia 70.1344
lfoot -14.1779 -26.9764
ltoes -2.45659
262
root 0.37989 15.1952 -16.7228 376.732 25.2823 13.3725
lowerback 88.4578 -8.73823 11.2425
upperback 6.15773 2.47564 -2.86009
thorax -11.0784 1.90423 -8.53445
lowerneck -3.06577 -10.0504 -1.9102
upperneck 6.2957 -13.6391 7.50066
head 3.31601 -6.52883 2.20505
rclavicle 3.18055e-015 -8.24956e-014
rhumerus 236.357 -164.304 -259.228
rradius 4.08699
rwrist 48.798
rhand -27.2928 2.8833
rfingers 7.12502
rthumb -0.702906 -27.0953
lclavicle 3.18055e-015 -8.24956e-014
lhumerus -23.1559 -18.299 96.1343
lradius 54.3061
lwrist 13.882
lhand -8.09391 -8.33812
lfingers 7.12502
lthumb 17.8185 20.8656
rfemur -58.8648 -12.7045 2.01297
rtibia 80.3906
rfoot -30.7591 -7.27229
rtoes -17.2492
lfemur -63.4743 -6.71612 -30.6428
ltibia 69.7087
lfoot -14.1599 -26.6972
ltoes -2.60798
